<svg xmlns="http://www.w3.org/2000/svg" viewBox="0 0 190 140">
  <defs>
    <linearGradient id="gsl-blue" x1="0" y1="0" x2="1" y2="1">
      <stop offset="0%" stop-color="#0D1F77" />
      <stop offset="100%" stop-color="#24336A" />
    </linearGradient>
    <linearGradient id="gsl-green" x1="0" y1="0" x2="1" y2="1">
      <stop offset="0%" stop-color="#B2D94C" />
      <stop offset="100%" stop-color="#8DBF44" />
    </linearGradient>
  </defs>
  <rect width="190" height="140" rx="24" fill="#ffffff"/>
  <path d="M34 63c12-23 37-35 68-38-23 9-39 22-50 40-11 18-30 27-52 25 16-5 27-13 34-27Z" fill="url(#gsl-green)"/>
  <path d="M159 18c-3 15-12 29-28 40 3-14 2-25-3-35 10-6 20-8 31-5Z" fill="url(#gsl-green)"/>
  <g fill="url(#gsl-blue)">
    <path d="M116 26c-31 0-56 22-56 49 0 27 25 49 56 49 20 0 36-6 48-18V78h-48v17h27c-5 9-16 14-29 14-18 0-32-13-32-29 0-16 14-29 32-29 11 0 20 4 27 11l20-10c-11-16-27-26-45-26Z"/>
    <path d="M174 26h29v95h-29V26Z"/>
    <path d="M222 26h29c7 0 14 1 20 3 6 2 11 5 15 8 4 4 8 8 10 13 2 5 4 10 4 16 0 10-3 18-10 25-7 6-15 10-26 11l39 19h-41l-33-18v18h-29V26Zm29 18v26h11c6 0 11-1 15-3 4-2 6-6 6-10 0-5-2-8-6-10-4-2-9-3-15-3h-11Z" transform="translate(-80 0) scale(.8 1)"/>
  </g>
</svg>
